<svg xmlns="http://www.w3.org/2000/svg" width="512" height="512" viewBox="0 0 512 512">
  <rect x="16" y="16" width="480" height="480" rx="112" fill="#161616" stroke="#2a2a2a" stroke-width="4"/>
  <circle cx="256" cy="256" r="170" fill="none" stroke="#3CC850" stroke-width="20" opacity="0.14"/>
  <line x1="86" y1="256" x2="426" y2="256" stroke="#39543f" stroke-width="3"/>
  <circle cx="341" cy="256" r="85" fill="none" stroke="#2c6e3f" stroke-width="2" opacity="0.4"/>
  <circle cx="305" cy="256" r="121" fill="none" stroke="#2c6e3f" stroke-width="2" opacity="0.3"/>
  <path d="M426 256 A340 340 0 0 1 154 120" fill="none" stroke="#3CC850" stroke-width="4" stroke-linecap="round"/>
  <path d="M426 256 A340 340 0 0 0 154 392" fill="none" stroke="#3CC850" stroke-width="4" stroke-linecap="round"/>
  <path d="M426 256 A170 170 0 0 1 256 86" fill="none" stroke="#3CC850" stroke-width="4" stroke-linecap="round"/>
  <path d="M426 256 A170 170 0 0 0 256 426" fill="none" stroke="#3CC850" stroke-width="4" stroke-linecap="round"/>
  <path d="M426 256 A85 85 0 0 1 358 120" fill="none" stroke="#3CC850" stroke-width="4" stroke-linecap="round"/>
  <path d="M426 256 A85 85 0 0 0 358 392" fill="none" stroke="#3CC850" stroke-width="4" stroke-linecap="round"/>
  <path d="M426 256 A57 57 0 0 1 392 154" fill="none" stroke="#3CC850" stroke-width="4" stroke-linecap="round"/>
  <path d="M426 256 A57 57 0 0 0 392 358" fill="none" stroke="#3CC850" stroke-width="4" stroke-linecap="round"/>
  <circle cx="256" cy="256" r="170" fill="none" stroke="#3CC850" stroke-width="8"/>
  <circle cx="256" cy="256" r="78" fill="none" stroke="#FFB000" stroke-width="4"/>
  <circle cx="307" cy="196" r="26" fill="#4A90E2" opacity="0.16"/>
  <circle cx="307" cy="196" r="17" fill="#4A90E2" opacity="0.30"/>
  <circle cx="307" cy="196" r="11" fill="#4A90E2"/>
  <circle cx="307" cy="196" r="4" fill="#EAEAEA"/>
  <circle cx="256" cy="256" r="5" fill="#4a4a4a"/>
</svg>
